# xmcd
#
# Track frame offsets:
#	150
#	11657
#	24050
#	38780
#	49829
#	62839
#	77452
#	85327
#	97894
#	112792
#	130522
#	143919
#	155560
#	169733
#	183295
#
# Disc length: 2649 seconds
#
# Revision: 0
# Processed by: cddbd v1.5.2PL0 Copyright (c) Steve Scherf et al.
# Submitted via: EasyCDDAExtractor 10.2.0.1
#
DISCID=ab0a570f
DTITLE=Johnny Cash - The Best Of (Green Series)
DYEAR=2008
DGENRE=Country
TTITLE0=Get Rhythm
TTITLE1=Ring Of Fire
TTITLE2=Long Black Veil
TTITLE3=Cry, Cry, Cry
TTITLE4=Ballad Of Ira Hayes
TTITLE5=Home Of The Blues
TTITLE6=Guess Things Happen That Way
TTITLE7=Folsom Prison Blues
TTITLE8=Cat's In The Cradle
TTITLE9=Sunday Morning Coming Down
TTITLE10=Don't Take Your Guns To Town
TTITLE11=I Walk The Line
TTITLE12=Tennesee Flat Top Box
TTITLE13=I Still Miss Someone
TTITLE14=The Night Hank Williams Came To Town
EXTD=
EXTT0=
EXTT1=
EXTT2=
EXTT3=
EXTT4=
EXTT5=
EXTT6=
EXTT7=
EXTT8=
EXTT9=
EXTT10=
EXTT11=
EXTT12=
EXTT13=
EXTT14=
PLAYORDER=
